<svg xmlns="http://www.w3.org/2000/svg" xmlns:xlink="http://www.w3.org/1999/xlink" id="Layer_1" width="512" height="512" x="0" y="0" enable-background="new 0 0 286.054 286.054" version="1.1" viewBox="0 0 286.054 286.054" xml:space="preserve"><g><g><path fill="#FFF" d="M143.027,0.004C64.04,0.004,0,64.036,0,143.022c0,78.996,64.04,143.027,143.027,143.027 s143.027-64.031,143.027-143.027C286.054,64.045,222.014,0.004,143.027,0.004z M143.027,259.232 c-64.183,0-116.209-52.026-116.209-116.209s52.026-116.21,116.209-116.21s116.209,52.026,116.209,116.209 S207.21,259.232,143.027,259.232z M200.863,136.434l-81.856-45.581c-5.962-3.638-11.827-0.706-11.827,6.526v91.367 c0,7.223,5.864,10.173,11.827,6.517l81.722-44.91C208.31,146.035,205.548,139.071,200.863,136.434z" class="active-path" data-old_color="#2394BC" data-original="#2394BC"/></g></g></svg>